<svg width="401" height="79" viewBox="0 0 401 79" fill="none" xmlns="http://www.w3.org/2000/svg">
<g clip-path="url(#clip0_2_3)">
<path d="M59.4661 4.1816V74H46.7161L16.341 30.0567H15.8296V74H1.0682V4.1816H14.0228L44.1592 48.0908H44.7729V4.1816H59.4661Z" fill="#990000"/>
<path d="M59.4661 4.1816H60.9779L59.4661 2.66978V4.1816ZM59.4661 74V75.5118L60.9779 74H59.4661ZM46.7161 74L45.4724 74.8596L46.7161 75.5118V74ZM16.341 30.0567L17.5846 29.197L16.341 28.5449V30.0567ZM15.8296 30.0567V28.5449L14.3178 30.0567H15.8296ZM15.8296 74V75.5118L17.3414 74H15.8296ZM1.0682 74H-0.443615L1.0682 75.5118V74ZM1.0682 4.1816V2.66978L-0.443615 4.1816H1.0682ZM14.0228 4.1816L15.2693 3.3261L14.0228 2.66978V4.1816ZM44.1592 48.0908L42.9128 48.9463L44.1592 49.6026V48.0908ZM44.7729 48.0908V49.6026L46.2847 48.0908H44.7729ZM44.7729 4.1816V2.66978L43.2611 4.1816H44.7729ZM57.9543 4.1816V74H60.9779V4.1816H57.9543ZM59.4661 72.4882H46.7161V75.5118H59.4661V72.4882ZM47.9597 73.1404L17.5846 29.197L15.0973 30.9163L45.4724 74.8596L47.9597 73.1404ZM16.341 28.5449H15.8296V31.5685H16.341V28.5449ZM14.3178 30.0567V74H17.3414V30.0567H14.3178ZM15.8296 72.4882H1.0682V75.5118H15.8296V72.4882ZM2.58002 74V4.1816H-0.443615V74H2.58002ZM1.0682 5.69342H14.0228V2.66978H1.0682V5.69342ZM12.7763 5.0371L42.9128 48.9463L45.4057 47.2353L15.2693 3.3261L12.7763 5.0371ZM44.1592 49.6026H44.7729V46.579H44.1592V49.6026ZM46.2847 48.0908V4.1816H43.2611V48.0908H46.2847ZM44.7729 5.69342H59.4661V2.66978H44.7729V5.69342Z" fill="#FFCC00"/>
<path d="M98.2983 21.5172C113.119 21.5172 125.133 17.3342 125.133 12.1742C125.133 7.01414 113.119 2.83113 98.2983 2.83113C83.4779 2.83113 71.4635 7.01414 71.4635 12.1742C71.4635 17.3342 83.4779 21.5172 98.2983 21.5172Z" fill="#990000" stroke="#FFCC00" stroke-width="3.02363" stroke-linecap="square" stroke-linejoin="bevel"/>
<path d="M72.4122 24.0608C87.3489 28.6 103.208 32.5572 126.01 23.8567V43.3402C111.648 49.4518 95.1801 51.7913 72.3404 43.2269L72.4122 24.0608Z" fill="#990000" stroke="#FFCC00" stroke-width="3.02363" stroke-linecap="square" stroke-linejoin="bevel"/>
<path d="M72.4122 51.5116C87.3489 56.1529 103.208 60.197 126.01 51.3037V71.2219C111.648 77.4657 95.1801 79.8581 72.3404 71.1047L72.4122 51.5116Z" fill="#990000" stroke="#FFCC00" stroke-width="3.02363" stroke-linecap="square" stroke-linejoin="bevel"/>
<path d="M159.435 3.97424L173.514 27.7698H174.06L188.207 3.97424H204.878L183.571 38.8834L205.355 73.7926H188.378L174.06 49.963H173.514L159.196 73.7926H142.287L164.139 38.8834L142.696 3.97424H159.435Z" fill="#990000"/>
<path d="M159.435 3.97424L160.736 3.20438L159.435 2.46242V3.97424ZM173.514 27.7698L172.213 28.5396L173.514 29.2816V27.7698ZM174.06 27.7698V29.2816L175.359 28.5424L174.06 27.7698ZM188.207 3.97424V2.46242L186.908 3.20163L188.207 3.97424ZM204.878 3.97424L206.168 4.76186L204.878 2.46242V3.97424ZM183.571 38.8834L182.281 38.0958L182.288 39.6838L183.571 38.8834ZM205.355 73.7926V75.3045L206.638 72.9923L205.355 73.7926ZM188.378 73.7926L187.082 74.5713L188.378 75.3045V73.7926ZM174.06 49.963L175.356 49.1844L174.06 48.4512V49.963ZM173.514 49.963V48.4512L172.218 49.1844L173.514 49.963ZM159.196 73.7926V75.3045L160.492 74.5713L159.196 73.7926ZM142.287 73.7926L141.005 72.9905L142.287 75.3045V73.7926ZM164.139 38.8834L165.421 39.6856L165.427 38.0922L164.139 38.8834ZM142.696 3.97424V2.46242L141.408 4.76553L142.696 3.97424ZM158.134 4.7441L172.213 28.5396L174.815 26.9999L160.736 3.20438L158.134 4.7441ZM173.514 29.2816H174.06V26.258H173.514V29.2816ZM175.359 28.5424L189.507 4.74686L186.908 3.20163L172.76 26.9972L175.359 28.5424ZM188.207 5.48606H204.878V2.46242H188.207V5.48606ZM203.588 3.18662L182.281 38.0958L184.862 39.6711L206.168 4.76186L203.588 3.18662ZM182.288 39.6838L204.073 74.593L206.638 72.9923L184.854 38.0831L182.288 39.6838ZM205.355 72.2808H188.378V75.3045H205.355V72.2808ZM189.674 73.014L175.356 49.1844L172.764 50.7417L187.082 74.5713L189.674 73.014ZM174.06 48.4512H173.514V51.4748H174.06V48.4512ZM172.218 49.1844L157.9 73.014L160.492 74.5713L174.81 50.7417L172.218 49.1844ZM159.196 72.2808H142.287V75.3045H159.196V72.2808ZM143.568 74.5948L165.421 39.6856L162.858 38.0813L141.005 72.9905L143.568 74.5948ZM165.427 38.0922L143.984 3.18295L141.408 4.76553L162.851 39.6747L165.427 38.0922ZM142.696 5.48606H159.435V2.46242H142.696V5.48606Z" fill="#FFCC00"/>
<path d="M240.292 73.7926H215.542V3.97424H240.496C247.519 3.97424 253.564 5.37197 258.633 8.16744C263.701 10.9402 267.599 14.9288 270.326 20.1334C273.076 25.3379 274.451 31.5652 274.451 38.8153C274.451 46.088 273.076 52.338 270.326 57.5653C267.599 62.7926 263.678 66.804 258.564 69.5994C253.474 72.3949 247.383 73.7926 240.292 73.7926ZM230.303 61.1449H239.678C244.042 61.1449 247.712 60.3721 250.689 58.8267C253.689 57.2585 255.939 54.838 257.439 51.5653C258.962 48.2698 259.724 44.0198 259.724 38.8153C259.724 33.6562 258.962 29.4402 257.439 26.1675C255.939 22.8948 253.701 20.4857 250.724 18.9402C247.746 17.3947 244.076 16.622 239.712 16.622H230.303V61.1449Z" fill="#990000"/>
<path d="M215.542 73.7926H214.03L215.542 75.3045V73.7926ZM215.542 3.97424V2.46242L214.03 3.97424H215.542ZM258.633 8.16744L257.902 9.49124L257.907 9.49374L258.633 8.16744ZM270.326 20.1334L268.987 20.8351L268.989 20.8397L270.326 20.1334ZM270.326 57.5653L268.988 56.8614L268.986 56.866L270.326 57.5653ZM258.564 69.5994L257.839 68.2729L257.837 68.2743L258.564 69.5994ZM230.303 61.1449H228.791L230.303 62.6567V61.1449ZM250.689 58.8267L251.386 60.1685L251.39 60.1665L250.689 58.8267ZM257.439 51.5653L256.067 50.9312L256.065 50.9354L257.439 51.5653ZM257.439 26.1675L256.065 26.7974L256.069 26.8053L257.439 26.1675ZM250.724 18.9402L251.42 17.5984L251.42 17.5984L250.724 18.9402ZM230.303 16.622V15.1102L228.791 16.622H230.303ZM240.292 72.2808H215.542V75.3045H240.292V72.2808ZM217.053 73.7926V3.97424H214.03V73.7926H217.053ZM215.542 5.48606H240.496V2.46242H215.542V5.48606ZM240.496 5.48606C247.318 5.48606 253.101 6.84285 257.902 9.49124L259.363 6.84364C254.028 3.9011 247.72 2.46242 240.496 2.46242V5.48606ZM257.907 9.49374C262.709 12.1208 266.395 15.8899 268.987 20.8351L271.665 19.4317C268.802 13.9678 264.693 9.75958 259.358 6.84113L257.907 9.49374ZM268.989 20.8397C271.601 25.7818 272.939 31.7552 272.939 38.8153H275.963C275.963 31.3753 274.551 24.8941 271.663 19.4271L268.989 20.8397ZM272.939 38.8153C272.939 45.8987 271.6 51.8958 268.988 56.8614L271.664 58.2692C274.552 52.7803 275.963 46.2774 275.963 38.8153H272.939ZM268.986 56.866C266.395 61.8312 262.687 65.6228 257.839 68.2729L259.29 70.926C264.669 67.9852 268.802 63.754 271.666 58.2646L268.986 56.866ZM257.837 68.2743C253.013 70.923 247.184 72.2808 240.292 72.2808V75.3045C247.581 75.3045 253.934 73.8668 259.292 70.9246L257.837 68.2743ZM230.303 62.6567H239.678V59.6331H230.303V62.6567ZM239.678 62.6567C244.214 62.6567 248.139 61.8542 251.386 60.1685L249.993 57.4849C247.286 58.8901 243.87 59.6331 239.678 59.6331V62.6567ZM251.39 60.1665C254.707 58.4327 257.184 55.7521 258.814 52.1952L256.065 50.9354C254.695 53.924 252.672 56.0843 249.989 57.4869L251.39 60.1665ZM258.812 52.1994C260.457 48.6384 261.235 44.1508 261.235 38.8153H258.212C258.212 43.8888 257.467 47.9013 256.067 50.9312L258.812 52.1994ZM261.235 38.8153C261.235 33.5236 260.457 29.0689 258.81 25.5297L256.069 26.8053C257.468 29.8116 258.212 33.7887 258.212 38.8153H261.235ZM258.814 25.5376C257.184 21.9826 254.719 19.3107 251.42 17.5984L250.027 20.282C252.683 21.6606 254.694 23.8069 256.065 26.7974L258.814 25.5376ZM251.42 17.5984C248.173 15.9127 244.248 15.1102 239.712 15.1102V18.1338C243.904 18.1338 247.32 18.8767 250.027 20.282L251.42 17.5984ZM239.712 15.1102H230.303V18.1338H239.712V15.1102ZM228.791 16.622V61.1449H231.815V16.622H228.791Z" fill="#FFCC00"/>
<path d="M384.223 25.1856C383.745 23.5265 383.075 22.0606 382.211 20.7879C381.347 19.4924 380.291 18.4015 379.041 17.5152C377.813 16.6061 376.404 15.9129 374.813 15.4356C373.245 14.9583 371.507 14.7197 369.597 14.7197C366.029 14.7197 362.893 15.6061 360.188 17.3788C357.507 19.1515 355.416 21.7311 353.916 25.1175C352.416 28.4811 351.666 32.5948 351.666 37.4584C351.666 42.3221 352.404 46.4584 353.882 49.8675C355.359 53.2766 357.45 55.8789 360.154 57.6744C362.859 59.4471 366.052 60.3335 369.734 60.3335C373.075 60.3335 375.927 59.7426 378.291 58.5607C380.677 57.3562 382.495 55.663 383.745 53.4812C385.018 51.2994 385.654 48.7198 385.654 45.7425L388.654 46.1857H370.654V35.072H399.87V43.8675C399.87 50.0039 398.575 55.2766 395.984 59.6858C393.393 64.0721 389.825 67.4585 385.279 69.8449C380.734 72.2085 375.529 73.3903 369.666 73.3903C363.12 73.3903 357.37 71.9472 352.416 69.0608C347.461 66.1517 343.597 62.0267 340.825 56.6857C338.075 51.3221 336.7 44.9584 336.7 37.5948C336.7 31.9357 337.518 26.8902 339.154 22.4584C340.813 18.0038 343.131 14.2311 346.109 11.1401C349.086 8.04923 352.552 5.69694 356.507 4.0833C360.461 2.46966 364.745 1.66284 369.359 1.66284C373.313 1.66284 376.995 2.24239 380.404 3.40149C383.813 4.53785 386.836 6.15149 389.473 8.24241C392.132 10.3333 394.302 12.822 395.984 15.7083C397.666 18.572 398.745 21.7311 399.223 25.1856H384.223Z" fill="#990000"/>
<path d="M384.223 25.1856L382.77 25.6036L384.223 26.6975V25.1856ZM382.211 20.7879L380.953 21.6265L380.96 21.6368L382.211 20.7879ZM379.041 17.5152L378.141 18.73L378.166 18.7484L379.041 17.5152ZM374.813 15.4356L374.373 16.8819L374.379 16.8837L374.813 15.4356ZM360.188 17.3788L359.36 16.1144L359.355 16.1176L360.188 17.3788ZM353.916 25.1175L355.296 25.7332L355.298 25.7297L353.916 25.1175ZM360.154 57.6744L359.318 58.9339L359.325 58.9388L360.154 57.6744ZM378.291 58.5607L378.967 59.913L378.972 59.9104L378.291 58.5607ZM383.745 53.4812L382.439 52.7194L382.433 52.7296L383.745 53.4812ZM385.654 45.7425L385.875 44.2469L384.143 45.7425H385.654ZM388.654 46.1857V47.6975L388.875 44.6901L388.654 46.1857ZM370.654 46.1857H369.142L370.654 47.6975V46.1857ZM370.654 35.072V33.5602L369.142 35.072H370.654ZM399.87 35.072H401.382L399.87 33.5602V35.072ZM395.984 59.6858L397.286 60.4546L397.287 60.4517L395.984 59.6858ZM385.279 69.8449L385.977 71.1862L385.982 71.1834L385.279 69.8449ZM352.416 69.0608L351.65 70.3645L351.655 70.3671L352.416 69.0608ZM340.825 56.6857L339.479 57.3755L339.483 57.3823L340.825 56.6857ZM339.154 22.4584L337.737 21.9307L337.736 21.9347L339.154 22.4584ZM346.109 11.1401L347.198 12.189L347.198 12.189L346.109 11.1401ZM356.507 4.0833L355.935 2.68353L355.935 2.68353L356.507 4.0833ZM380.404 3.40149L379.918 4.83286L379.926 4.83572L380.404 3.40149ZM389.473 8.24241L388.533 9.42692L388.538 9.43082L389.473 8.24241ZM395.984 15.7083L394.678 16.4695L394.68 16.474L395.984 15.7083ZM399.223 25.1856V26.6975L400.72 24.9787L399.223 25.1856ZM385.675 24.7677C385.159 22.9737 384.426 21.3589 383.462 19.939L380.96 21.6368C381.724 22.7624 382.331 24.0794 382.77 25.6036L385.675 24.7677ZM383.469 19.9493C382.504 18.5025 381.318 17.277 379.915 16.2819L378.166 18.7484C379.263 19.5261 380.191 20.4824 380.953 21.6265L383.469 19.9493ZM379.941 16.3003C378.561 15.2784 376.992 14.5107 375.248 13.9876L374.379 16.8837C375.817 17.3151 377.066 17.9337 378.141 18.73L379.941 16.3003ZM375.254 13.9893C373.521 13.4621 371.632 13.2079 369.597 13.2079V16.2315C371.381 16.2315 372.969 16.4545 374.373 16.8819L375.254 13.9893ZM369.597 13.2079C365.766 13.2079 362.336 14.1637 359.36 16.1144L361.017 18.6432C363.45 17.0484 366.292 16.2315 369.597 16.2315V13.2079ZM359.355 16.1176C356.397 18.0729 354.132 20.8956 352.533 24.5052L355.298 25.7297C356.699 22.5665 358.616 20.2302 361.022 18.64L359.355 16.1176ZM352.535 24.5017C350.925 28.1107 350.154 32.4474 350.154 37.4584H353.177C353.177 32.7422 353.906 28.8516 355.296 25.7332L352.535 24.5017ZM350.154 37.4584C350.154 42.4679 350.914 46.8209 352.494 50.4686L355.269 49.2664C353.895 46.096 353.177 42.1762 353.177 37.4584H350.154ZM352.494 50.4686C354.071 54.1061 356.336 56.9544 359.318 58.9339L360.99 56.4148C358.563 54.8034 356.647 52.4472 355.269 49.2664L352.494 50.4686ZM359.325 58.9388C362.309 60.8945 365.8 61.8453 369.734 61.8453V58.8217C366.304 58.8217 363.408 57.9997 360.983 56.41L359.325 58.9388ZM369.734 61.8453C373.249 61.8453 376.345 61.2238 378.967 59.913L377.615 57.2085C375.509 58.2614 372.9 58.8217 369.734 58.8217V61.8453ZM378.972 59.9104C381.605 58.5813 383.65 56.6878 385.057 54.2327L382.433 52.7296C381.34 54.6382 379.749 56.1311 377.609 57.2111L378.972 59.9104ZM385.051 54.2429C386.481 51.7916 387.166 48.9393 387.166 45.7425H384.143C384.143 48.5003 383.555 50.8072 382.439 52.7194L385.051 54.2429ZM385.433 47.2381L388.433 47.6813L388.875 44.6901L385.875 44.2469L385.433 47.2381ZM388.654 44.6739H370.654V47.6975H388.654V44.6739ZM372.166 46.1857V35.072H369.142V46.1857H372.166ZM370.654 36.5839H399.87V33.5602H370.654V36.5839ZM398.358 35.072V43.8675H401.382V35.072H398.358ZM398.358 43.8675C398.358 49.7886 397.11 54.7854 394.68 58.9198L397.287 60.4517C400.04 55.7679 401.382 50.2192 401.382 43.8675H398.358ZM394.682 58.9169C392.235 63.0594 388.875 66.2494 384.577 68.5063L385.982 71.1834C390.774 68.6676 394.551 65.0848 397.286 60.4546L394.682 58.9169ZM384.582 68.5036C380.281 70.7399 375.322 71.8785 369.666 71.8785V74.9022C375.737 74.9022 381.187 73.6771 385.977 71.1862L384.582 68.5036ZM369.666 71.8785C363.349 71.8785 357.869 70.4881 353.177 67.7545L351.655 70.3671C356.871 73.4062 362.891 74.9022 369.666 74.9022V71.8785ZM353.181 67.7571C348.484 64.9991 344.815 61.0901 342.166 55.9892L339.483 57.3823C342.38 62.9633 346.438 67.3043 351.65 70.3645L353.181 67.7571ZM342.17 55.996C339.551 50.888 338.211 44.771 338.211 37.5948H335.188C335.188 45.1459 336.598 51.7562 339.479 57.3755L342.17 55.996ZM338.211 37.5948C338.211 32.0799 339.009 27.2167 340.572 22.982L337.736 21.9347C336.027 26.5637 335.188 31.7914 335.188 37.5948H338.211ZM340.571 22.986C342.165 18.7048 344.379 15.1151 347.198 12.189L345.02 10.0913C341.884 13.347 339.461 17.3028 337.737 21.9307L340.571 22.986ZM347.198 12.189C350.029 9.24907 353.319 7.0167 357.078 5.48307L355.935 2.68353C351.785 4.37719 348.143 6.84938 345.02 10.0913L347.198 12.189ZM357.078 5.48307C360.837 3.94918 364.925 3.17466 369.359 3.17466V0.151026C364.565 0.151026 360.085 0.990144 355.935 2.68353L357.078 5.48307ZM369.359 3.17466C373.164 3.17466 376.68 3.73199 379.918 4.83283L380.891 1.97014C377.311 0.752786 373.463 0.151026 369.359 0.151026V3.17466ZM379.926 4.83572C383.18 5.92017 386.044 7.45273 388.533 9.42691L390.412 7.0579C387.628 4.85025 384.447 3.15553 380.882 1.96725L379.926 4.83572ZM388.538 9.43082C391.049 11.4055 393.093 13.7498 394.678 16.4695L397.29 14.9472C395.511 11.8942 393.214 9.26113 390.407 7.05399L388.538 9.43082ZM394.68 16.474C396.256 19.1574 397.274 22.1251 397.725 25.3925L400.72 24.9787C400.217 21.337 399.075 17.9866 397.288 14.9427L394.68 16.474ZM399.223 23.6738H384.223V26.6975H399.223V23.6738Z" fill="#FFCC00"/>
<path d="M296.07 2.07901L319.216 2.24531C322.005 11.3162 312.137 8.028 307.787 12.2875C303.939 8.53824 293.678 10.3978 296.07 2.07901Z" fill="#990000" stroke="#FFCC00" stroke-width="4.15749" stroke-linecap="square" stroke-linejoin="bevel"/>
<path d="M308 17V51.1935Z" fill="#990000"/>
<path d="M308 17V51.1935" stroke="#FFCC00" stroke-width="6.16" stroke-linecap="square" stroke-linejoin="bevel"/>
<path d="M308 17V51.1935Z" fill="#990000"/>
<path d="M308 17V51.1935" stroke="#990000" stroke-width="3.16" stroke-linecap="square" stroke-linejoin="bevel"/>
<path d="M302.31 45.8461V55.019H313.358V46.0615H322.387C321.004 57.3094 323.283 68.7614 307.968 76.9744C289.739 65.5866 294.796 55.8505 293.149 45.8461H302.31Z" fill="#990000" stroke="#FFCC00" stroke-width="3.02363" stroke-linecap="square" stroke-linejoin="bevel"/>
</g>
<defs>
<clipPath id="clip0_2_3">
<rect width="400.96" height="78.305" fill="white"/>
</clipPath>
</defs>
</svg>
